<svg width="14" height="14" viewBox="0 0 14 14" fill="none" xmlns="http://www.w3.org/2000/svg">
<g clip-path="url(#clip0_19_387)">
<path d="M8.21399 3.2585L0.525076 10.9486C0.209154 11.2873 0.0370839 11.7355 0.0451309 12.1987C0.0531778 12.6618 0.240713 13.1037 0.568213 13.4313C0.895713 13.7589 1.3376 13.9465 1.80073 13.9547C2.26387 13.9628 2.71208 13.7908 3.05091 13.475L10.7416 5.78608L8.21399 3.2585ZM9.09191 5.78608L7.58341 7.29458L6.70841 6.41667L8.21691 4.90817L9.09191 5.78608ZM2.22608 12.6513C2.10815 12.7637 1.95149 12.8264 1.78858 12.8264C1.62566 12.8264 1.469 12.7637 1.35108 12.6513C1.23524 12.5352 1.17018 12.3779 1.17018 12.2138C1.17018 12.0498 1.23524 11.8925 1.35108 11.7763L5.88299 7.24383L6.76091 8.12175L2.22608 12.6513ZM12.4443 8.533L14.0001 9.31117L12.4443 10.0917L11.6667 11.6445L10.8892 10.0917L9.33341 9.31117L10.8892 8.533L11.6667 6.97783L12.4443 8.533ZM3.88916 3.11092L2.33341 2.33333L3.88916 1.55575L4.66674 0L5.44433 1.55575L7.00008 2.33333L5.44433 3.11092L4.66674 4.66667L3.88916 3.11092ZM11.2777 2.72242L9.91674 2.04167L11.2777 1.36092L11.9584 0L12.6392 1.36092L14.0001 2.04167L12.6392 2.72242L11.9584 4.08333L11.2777 2.72242Z" fill="#3946A6"/>
</g>
<defs>
<clipPath id="clip0_19_387">
<rect width="14" height="14" fill="white"/>
</clipPath>
</defs>
</svg>
